<svg xmlns="http://www.w3.org/2000/svg" xmlns:svg="http://www.w3.org/2000/svg" id="svg7384" width="16" height="16" version="1.1"><metadata id="metadata90"/><title id="title9167">Gnome Symbolic Icon Theme</title><g id="layer9" style="display:inline" transform="translate(-103.0002,-325)"><path id="rect11265" d="m 108.34395,327 c -0.74444,0 -1.26707,0.60327 -1.34375,1.34375 l -1,9.65625 0.28125,0 9.4375,0 0.28125,0 -1,-9.65625 C 114.92352,327.60327 114.40089,327 113.65645,327 l -5.3125,0 z m 2.625,1.03125 c 0.54448,-0.0172 1.04849,0.48677 1.03125,1.03125 l 0,3.9375 c 0.007,0.52831 -0.47163,1 -1,1 -0.52836,0 -1.00747,-0.47169 -1,-1 l 0,-3.9375 c -0.008,-0.4666 0.3541,-0.91253 0.8125,-1 0.0511,-0.0145 0.10345,-0.0249 0.15625,-0.0312 z M 110.0002,335 l 2,0 0,2 -2,0 0,-2 z" style="fill:#bebebe;fill-opacity:1;stroke:none"/><rect id="rect11269" width="12" height="1" x="105" y="-340" rx=".5" ry=".5" style="fill:#bebebe;fill-opacity:1;stroke:none" transform="scale(1,-1)"/></g></svg>